<mxfile host="app.diagrams.net" modified="2020-11-24T22:01:18.721Z" agent="5.0 (Windows NT 10.0; Win64; x64) AppleWebKit/537.36 (KHTML, like Gecko) Chrome/87.0.4280.66 Safari/537.36 Edg/87.0.664.41" etag="UIlJUhoQvp9DczCXLSI0" version="13.10.1" type="github">
  <diagram id="icGiSeaUzblTt_hKwD1m" name="Page-1">
    <mxGraphModel dx="744" dy="393" grid="1" gridSize="10" guides="1" tooltips="1" connect="1" arrows="1" fold="1" page="1" pageScale="1" pageWidth="827" pageHeight="1169" background="#F4F1DE" math="0" shadow="0">
      <root>
        <mxCell id="0" />
        <mxCell id="1" parent="0" />
        <mxCell id="xFGYgxn2yOLl9zh3nEgM-1" value="&lt;font style=&quot;font-size: 25px&quot;&gt;0&lt;/font&gt;" style="ellipse;whiteSpace=wrap;html=1;strokeWidth=4;fillColor=#F2CC8F;strokeColor=#E07A5F;fontColor=#393C56;rounded=1;" parent="1" vertex="1">
          <mxGeometry x="80" y="200" width="40" height="40" as="geometry" />
        </mxCell>
        <mxCell id="xFGYgxn2yOLl9zh3nEgM-2" value="&lt;font style=&quot;font-size: 20px&quot;&gt;2&lt;/font&gt;" style="ellipse;whiteSpace=wrap;html=1;strokeWidth=4;fillColor=#F2CC8F;strokeColor=#E07A5F;fontColor=#393C56;rounded=1;" parent="1" vertex="1">
          <mxGeometry x="320" y="200" width="40" height="40" as="geometry" />
        </mxCell>
        <mxCell id="xFGYgxn2yOLl9zh3nEgM-3" value="&lt;font style=&quot;font-size: 20px&quot;&gt;4&lt;/font&gt;" style="ellipse;whiteSpace=wrap;html=1;strokeWidth=4;fillColor=#F2CC8F;strokeColor=#E07A5F;fontColor=#393C56;rounded=1;" parent="1" vertex="1">
          <mxGeometry x="400" y="40" width="40" height="40" as="geometry" />
        </mxCell>
        <mxCell id="xFGYgxn2yOLl9zh3nEgM-4" value="&lt;font style=&quot;font-size: 20px&quot;&gt;3&lt;/font&gt;" style="ellipse;whiteSpace=wrap;html=1;strokeWidth=4;fillColor=#F2CC8F;strokeColor=#E07A5F;fontColor=#393C56;rounded=1;" parent="1" vertex="1">
          <mxGeometry x="240" y="120" width="40" height="40" as="geometry" />
        </mxCell>
        <mxCell id="xFGYgxn2yOLl9zh3nEgM-5" value="&lt;font style=&quot;font-size: 20px&quot;&gt;1&lt;/font&gt;" style="ellipse;whiteSpace=wrap;html=1;strokeWidth=4;fillColor=#F2CC8F;strokeColor=#E07A5F;fontColor=#393C56;rounded=1;" parent="1" vertex="1">
          <mxGeometry x="240" y="280" width="40" height="40" as="geometry" />
        </mxCell>
        <mxCell id="xFGYgxn2yOLl9zh3nEgM-6" value="&lt;font style=&quot;font-size: 20px&quot;&gt;8&lt;/font&gt;" style="ellipse;whiteSpace=wrap;html=1;fillColor=#F2CC8F;strokeColor=#E07A5F;fontColor=#393C56;rounded=1;" parent="1" vertex="1">
          <mxGeometry x="640" y="120" width="40" height="40" as="geometry" />
        </mxCell>
        <mxCell id="xFGYgxn2yOLl9zh3nEgM-64" style="edgeStyle=orthogonalEdgeStyle;shape=link;orthogonalLoop=1;jettySize=auto;html=1;exitX=1;exitY=0.5;exitDx=0;exitDy=0;entryX=0.5;entryY=1;entryDx=0;entryDy=0;labelBackgroundColor=#F4F1DE;strokeColor=#E07A5F;fontColor=#393C56;" parent="1" source="xFGYgxn2yOLl9zh3nEgM-7" target="xFGYgxn2yOLl9zh3nEgM-50" edge="1">
          <mxGeometry relative="1" as="geometry" />
        </mxCell>
        <mxCell id="xFGYgxn2yOLl9zh3nEgM-7" value="&lt;font style=&quot;font-size: 20px&quot;&gt;6&lt;/font&gt;" style="ellipse;whiteSpace=wrap;html=1;strokeWidth=4;fillColor=#F2CC8F;strokeColor=#E07A5F;fontColor=#393C56;rounded=1;" parent="1" vertex="1">
          <mxGeometry x="400" y="360" width="40" height="40" as="geometry" />
        </mxCell>
        <mxCell id="xFGYgxn2yOLl9zh3nEgM-8" value="&lt;font style=&quot;font-size: 20px&quot;&gt;9&lt;/font&gt;" style="ellipse;whiteSpace=wrap;html=1;fillColor=#F2CC8F;strokeColor=#E07A5F;fontColor=#393C56;rounded=1;" parent="1" vertex="1">
          <mxGeometry x="720" y="200" width="40" height="40" as="geometry" />
        </mxCell>
        <mxCell id="xFGYgxn2yOLl9zh3nEgM-9" value="&lt;font style=&quot;font-size: 20px&quot;&gt;5&lt;/font&gt;" style="ellipse;whiteSpace=wrap;html=1;fillColor=#F2CC8F;strokeColor=#E07A5F;fontColor=#393C56;rounded=1;" parent="1" vertex="1">
          <mxGeometry x="520" y="200" width="40" height="40" as="geometry" />
        </mxCell>
        <mxCell id="xFGYgxn2yOLl9zh3nEgM-10" value="&lt;font style=&quot;font-size: 20px&quot;&gt;7&lt;/font&gt;" style="ellipse;whiteSpace=wrap;html=1;strokeWidth=4;fillColor=#F2CC8F;strokeColor=#E07A5F;fontColor=#393C56;rounded=1;" parent="1" vertex="1">
          <mxGeometry x="640" y="280" width="40" height="40" as="geometry" />
        </mxCell>
        <mxCell id="xFGYgxn2yOLl9zh3nEgM-14" value="&lt;font style=&quot;font-size: 20px&quot;&gt;9&lt;/font&gt;" style="ellipse;whiteSpace=wrap;html=1;fillColor=#F2CC8F;strokeColor=#E07A5F;fontColor=#393C56;rounded=1;" parent="1" vertex="1">
          <mxGeometry x="720" y="200" width="40" height="40" as="geometry" />
        </mxCell>
        <mxCell id="xFGYgxn2yOLl9zh3nEgM-15" value="&lt;font style=&quot;font-size: 20px&quot;&gt;8&lt;/font&gt;" style="ellipse;whiteSpace=wrap;html=1;fillColor=#F2CC8F;strokeColor=#E07A5F;fontColor=#393C56;rounded=1;" parent="1" vertex="1">
          <mxGeometry x="640" y="120" width="40" height="40" as="geometry" />
        </mxCell>
        <mxCell id="xFGYgxn2yOLl9zh3nEgM-16" value="&lt;font style=&quot;font-size: 20px&quot;&gt;5&lt;/font&gt;" style="ellipse;whiteSpace=wrap;html=1;fillColor=#F2CC8F;strokeColor=#E07A5F;fontColor=#393C56;rounded=1;" parent="1" vertex="1">
          <mxGeometry x="520" y="200" width="40" height="40" as="geometry" />
        </mxCell>
        <mxCell id="xFGYgxn2yOLl9zh3nEgM-17" value="&lt;font style=&quot;font-size: 20px&quot;&gt;9&lt;/font&gt;" style="ellipse;whiteSpace=wrap;html=1;strokeWidth=4;fillColor=#F2CC8F;strokeColor=#E07A5F;fontColor=#393C56;rounded=1;" parent="1" vertex="1">
          <mxGeometry x="720" y="200" width="40" height="40" as="geometry" />
        </mxCell>
        <mxCell id="xFGYgxn2yOLl9zh3nEgM-18" value="&lt;font style=&quot;font-size: 20px&quot;&gt;8&lt;/font&gt;" style="ellipse;whiteSpace=wrap;html=1;strokeWidth=4;fillColor=#F2CC8F;strokeColor=#E07A5F;fontColor=#393C56;rounded=1;" parent="1" vertex="1">
          <mxGeometry x="640" y="120" width="40" height="40" as="geometry" />
        </mxCell>
        <mxCell id="xFGYgxn2yOLl9zh3nEgM-19" value="&lt;font style=&quot;font-size: 20px&quot;&gt;5&lt;/font&gt;" style="ellipse;whiteSpace=wrap;html=1;strokeWidth=4;fillColor=#F2CC8F;strokeColor=#E07A5F;fontColor=#393C56;rounded=1;" parent="1" vertex="1">
          <mxGeometry x="520" y="200" width="40" height="40" as="geometry" />
        </mxCell>
        <mxCell id="xFGYgxn2yOLl9zh3nEgM-20" value="&lt;font style=&quot;font-size: 20px&quot;&gt;8&lt;/font&gt;" style="ellipse;whiteSpace=wrap;html=1;strokeWidth=4;fillColor=#F2CC8F;strokeColor=#E07A5F;fontColor=#393C56;rounded=1;" parent="1" vertex="1">
          <mxGeometry x="640" y="120" width="40" height="40" as="geometry" />
        </mxCell>
        <mxCell id="xFGYgxn2yOLl9zh3nEgM-21" value="&lt;font style=&quot;font-size: 20px&quot;&gt;9&lt;/font&gt;" style="ellipse;whiteSpace=wrap;html=1;strokeWidth=4;fillColor=#F2CC8F;strokeColor=#E07A5F;fontColor=#393C56;rounded=1;" parent="1" vertex="1">
          <mxGeometry x="720" y="200" width="40" height="40" as="geometry" />
        </mxCell>
        <mxCell id="xFGYgxn2yOLl9zh3nEgM-22" value="&lt;font style=&quot;font-size: 20px&quot;&gt;7&lt;/font&gt;" style="ellipse;whiteSpace=wrap;html=1;strokeWidth=4;fillColor=#F2CC8F;strokeColor=#E07A5F;fontColor=#393C56;rounded=1;" parent="1" vertex="1">
          <mxGeometry x="640" y="280" width="40" height="40" as="geometry" />
        </mxCell>
        <mxCell id="xFGYgxn2yOLl9zh3nEgM-23" value="&lt;font style=&quot;font-size: 20px&quot;&gt;5&lt;/font&gt;" style="ellipse;whiteSpace=wrap;html=1;strokeWidth=4;fillColor=#F2CC8F;strokeColor=#E07A5F;fontColor=#393C56;rounded=1;" parent="1" vertex="1">
          <mxGeometry x="520" y="200" width="40" height="40" as="geometry" />
        </mxCell>
        <mxCell id="xFGYgxn2yOLl9zh3nEgM-24" value="&lt;font style=&quot;font-size: 20px&quot;&gt;8&lt;/font&gt;" style="ellipse;whiteSpace=wrap;html=1;strokeWidth=4;fillColor=#F2CC8F;strokeColor=#E07A5F;fontColor=#393C56;rounded=1;" parent="1" vertex="1">
          <mxGeometry x="640" y="120" width="40" height="40" as="geometry" />
        </mxCell>
        <mxCell id="xFGYgxn2yOLl9zh3nEgM-25" value="&lt;font style=&quot;font-size: 20px&quot;&gt;9&lt;/font&gt;" style="ellipse;whiteSpace=wrap;html=1;strokeWidth=4;fillColor=#F2CC8F;strokeColor=#E07A5F;fontColor=#393C56;rounded=1;" parent="1" vertex="1">
          <mxGeometry x="720" y="200" width="40" height="40" as="geometry" />
        </mxCell>
        <mxCell id="xFGYgxn2yOLl9zh3nEgM-26" value="&lt;font style=&quot;font-size: 20px&quot;&gt;7&lt;/font&gt;" style="ellipse;whiteSpace=wrap;html=1;strokeWidth=4;fillColor=#F2CC8F;strokeColor=#E07A5F;fontColor=#393C56;rounded=1;" parent="1" vertex="1">
          <mxGeometry x="640" y="280" width="40" height="40" as="geometry" />
        </mxCell>
        <mxCell id="xFGYgxn2yOLl9zh3nEgM-27" value="&lt;font style=&quot;font-size: 20px&quot;&gt;5&lt;/font&gt;" style="ellipse;whiteSpace=wrap;html=1;strokeWidth=4;fillColor=#F2CC8F;strokeColor=#E07A5F;fontColor=#393C56;rounded=1;" parent="1" vertex="1">
          <mxGeometry x="520" y="200" width="40" height="40" as="geometry" />
        </mxCell>
        <mxCell id="xFGYgxn2yOLl9zh3nEgM-28" value="&lt;font style=&quot;font-size: 20px&quot;&gt;4&lt;/font&gt;" style="ellipse;whiteSpace=wrap;html=1;strokeWidth=4;fillColor=#F2CC8F;strokeColor=#E07A5F;fontColor=#393C56;rounded=1;" parent="1" vertex="1">
          <mxGeometry x="400" y="40" width="40" height="40" as="geometry" />
        </mxCell>
        <mxCell id="xFGYgxn2yOLl9zh3nEgM-29" value="&lt;font style=&quot;font-size: 20px&quot;&gt;8&lt;/font&gt;" style="ellipse;whiteSpace=wrap;html=1;strokeWidth=4;fillColor=#F2CC8F;strokeColor=#E07A5F;fontColor=#393C56;rounded=1;" parent="1" vertex="1">
          <mxGeometry x="640" y="120" width="40" height="40" as="geometry" />
        </mxCell>
        <mxCell id="xFGYgxn2yOLl9zh3nEgM-30" value="&lt;font style=&quot;font-size: 20px&quot;&gt;9&lt;/font&gt;" style="ellipse;whiteSpace=wrap;html=1;strokeWidth=4;fillColor=#F2CC8F;strokeColor=#E07A5F;fontColor=#393C56;rounded=1;" parent="1" vertex="1">
          <mxGeometry x="720" y="200" width="40" height="40" as="geometry" />
        </mxCell>
        <mxCell id="xFGYgxn2yOLl9zh3nEgM-31" value="&lt;font style=&quot;font-size: 20px&quot;&gt;7&lt;/font&gt;" style="ellipse;whiteSpace=wrap;html=1;strokeWidth=4;fillColor=#F2CC8F;strokeColor=#E07A5F;fontColor=#393C56;rounded=1;" parent="1" vertex="1">
          <mxGeometry x="640" y="280" width="40" height="40" as="geometry" />
        </mxCell>
        <mxCell id="xFGYgxn2yOLl9zh3nEgM-32" value="&lt;font style=&quot;font-size: 20px&quot;&gt;5&lt;/font&gt;" style="ellipse;whiteSpace=wrap;html=1;strokeWidth=4;fillColor=#F2CC8F;strokeColor=#E07A5F;fontColor=#393C56;rounded=1;" parent="1" vertex="1">
          <mxGeometry x="520" y="200" width="40" height="40" as="geometry" />
        </mxCell>
        <mxCell id="xFGYgxn2yOLl9zh3nEgM-33" value="&lt;font style=&quot;font-size: 20px&quot;&gt;4&lt;/font&gt;" style="ellipse;whiteSpace=wrap;html=1;strokeWidth=4;fillColor=#F2CC8F;strokeColor=#E07A5F;fontColor=#393C56;rounded=1;" parent="1" vertex="1">
          <mxGeometry x="400" y="40" width="40" height="40" as="geometry" />
        </mxCell>
        <mxCell id="xFGYgxn2yOLl9zh3nEgM-34" value="&lt;font style=&quot;font-size: 20px&quot;&gt;8&lt;/font&gt;" style="ellipse;whiteSpace=wrap;html=1;strokeWidth=4;fillColor=#F2CC8F;strokeColor=#E07A5F;fontColor=#393C56;rounded=1;" parent="1" vertex="1">
          <mxGeometry x="640" y="120" width="40" height="40" as="geometry" />
        </mxCell>
        <mxCell id="xFGYgxn2yOLl9zh3nEgM-35" value="&lt;font style=&quot;font-size: 20px&quot;&gt;9&lt;/font&gt;" style="ellipse;whiteSpace=wrap;html=1;strokeWidth=4;fillColor=#F2CC8F;strokeColor=#E07A5F;fontColor=#393C56;rounded=1;" parent="1" vertex="1">
          <mxGeometry x="720" y="200" width="40" height="40" as="geometry" />
        </mxCell>
        <mxCell id="xFGYgxn2yOLl9zh3nEgM-36" value="&lt;font style=&quot;font-size: 20px&quot;&gt;7&lt;/font&gt;" style="ellipse;whiteSpace=wrap;html=1;strokeWidth=4;fillColor=#F2CC8F;strokeColor=#E07A5F;fontColor=#393C56;rounded=1;" parent="1" vertex="1">
          <mxGeometry x="640" y="280" width="40" height="40" as="geometry" />
        </mxCell>
        <mxCell id="xFGYgxn2yOLl9zh3nEgM-37" value="&lt;font style=&quot;font-size: 20px&quot;&gt;5&lt;/font&gt;" style="ellipse;whiteSpace=wrap;html=1;strokeWidth=4;fillColor=#F2CC8F;strokeColor=#E07A5F;fontColor=#393C56;rounded=1;" parent="1" vertex="1">
          <mxGeometry x="520" y="200" width="40" height="40" as="geometry" />
        </mxCell>
        <mxCell id="xFGYgxn2yOLl9zh3nEgM-38" value="&lt;font style=&quot;font-size: 20px&quot;&gt;4&lt;/font&gt;" style="ellipse;whiteSpace=wrap;html=1;strokeWidth=4;fillColor=#F2CC8F;strokeColor=#E07A5F;fontColor=#393C56;rounded=1;" parent="1" vertex="1">
          <mxGeometry x="400" y="40" width="40" height="40" as="geometry" />
        </mxCell>
        <mxCell id="xFGYgxn2yOLl9zh3nEgM-39" value="&lt;font style=&quot;font-size: 20px&quot;&gt;8&lt;/font&gt;" style="ellipse;whiteSpace=wrap;html=1;strokeWidth=4;fillColor=#F2CC8F;strokeColor=#E07A5F;fontColor=#393C56;rounded=1;" parent="1" vertex="1">
          <mxGeometry x="640" y="120" width="40" height="40" as="geometry" />
        </mxCell>
        <mxCell id="xFGYgxn2yOLl9zh3nEgM-40" value="&lt;font style=&quot;font-size: 20px&quot;&gt;9&lt;/font&gt;" style="ellipse;whiteSpace=wrap;html=1;strokeWidth=4;fillColor=#F2CC8F;strokeColor=#E07A5F;fontColor=#393C56;rounded=1;" parent="1" vertex="1">
          <mxGeometry x="720" y="200" width="40" height="40" as="geometry" />
        </mxCell>
        <mxCell id="xFGYgxn2yOLl9zh3nEgM-41" value="&lt;font style=&quot;font-size: 20px&quot;&gt;7&lt;/font&gt;" style="ellipse;whiteSpace=wrap;html=1;strokeWidth=4;fillColor=#F2CC8F;strokeColor=#E07A5F;fontColor=#393C56;rounded=1;" parent="1" vertex="1">
          <mxGeometry x="640" y="280" width="40" height="40" as="geometry" />
        </mxCell>
        <mxCell id="xFGYgxn2yOLl9zh3nEgM-59" style="edgeStyle=orthogonalEdgeStyle;orthogonalLoop=1;jettySize=auto;html=1;exitX=1;exitY=1;exitDx=0;exitDy=0;entryX=0;entryY=0.5;entryDx=0;entryDy=0;shape=link;labelBackgroundColor=#F4F1DE;strokeColor=#E07A5F;fontColor=#393C56;" parent="1" source="xFGYgxn2yOLl9zh3nEgM-42" target="xFGYgxn2yOLl9zh3nEgM-50" edge="1">
          <mxGeometry relative="1" as="geometry" />
        </mxCell>
        <mxCell id="xFGYgxn2yOLl9zh3nEgM-61" style="edgeStyle=orthogonalEdgeStyle;orthogonalLoop=1;jettySize=auto;html=1;entryX=0.5;entryY=1;entryDx=0;entryDy=0;shape=link;exitX=1;exitY=0;exitDx=0;exitDy=0;labelBackgroundColor=#F4F1DE;strokeColor=#E07A5F;fontColor=#393C56;" parent="1" source="xFGYgxn2yOLl9zh3nEgM-42" target="xFGYgxn2yOLl9zh3nEgM-43" edge="1">
          <mxGeometry relative="1" as="geometry">
            <mxPoint x="550" y="190" as="sourcePoint" />
            <Array as="points">
              <mxPoint x="550" y="206" />
              <mxPoint x="550" y="150" />
              <mxPoint x="420" y="150" />
            </Array>
          </mxGeometry>
        </mxCell>
        <mxCell id="xFGYgxn2yOLl9zh3nEgM-42" value="&lt;font style=&quot;font-size: 20px&quot;&gt;5&lt;/font&gt;" style="ellipse;whiteSpace=wrap;html=1;strokeWidth=4;fillColor=#F2CC8F;strokeColor=#E07A5F;fontColor=#393C56;rounded=1;" parent="1" vertex="1">
          <mxGeometry x="520" y="200" width="40" height="40" as="geometry" />
        </mxCell>
        <mxCell id="xFGYgxn2yOLl9zh3nEgM-56" style="edgeStyle=orthogonalEdgeStyle;orthogonalLoop=1;jettySize=auto;html=1;exitX=1;exitY=0.5;exitDx=0;exitDy=0;entryX=0;entryY=0.5;entryDx=0;entryDy=0;shape=link;labelBackgroundColor=#F4F1DE;strokeColor=#E07A5F;fontColor=#393C56;" parent="1" source="xFGYgxn2yOLl9zh3nEgM-43" target="xFGYgxn2yOLl9zh3nEgM-48" edge="1">
          <mxGeometry relative="1" as="geometry" />
        </mxCell>
        <mxCell id="xFGYgxn2yOLl9zh3nEgM-102" value="&lt;span style=&quot;color: rgba(0 , 0 , 0 , 0) ; font-family: monospace ; font-size: 0px ; background-color: rgb(248 , 249 , 250)&quot;&gt;%3CmxGraphModel%3E%3Croot%3E%3CmxCell%20id%3D%220%22%2F%3E%3CmxCell%20id%3D%221%22%20parent%3D%220%22%2F%3E%3CmxCell%20id%3D%222%22%20value%3D%22%26lt%3Bfont%20style%3D%26quot%3Bfont-size%3A%2020px%3B%26quot%3B%20face%3D%26quot%3BVerdana%26quot%3B%26gt%3B20%26lt%3B%2Ffont%26gt%3B%22%20style%3D%22edgeLabel%3Bhtml%3D1%3Balign%3Dcenter%3BverticalAlign%3Dmiddle%3Bresizable%3D0%3Bpoints%3D%5B%5D%3BfontFamily%3DComic%20Sans%20MS%3BfontColor%3D%23000000%3BlabelBorderColor%3D%23FFD966%3BlabelBackgroundColor%3D%23FFF2CC%3Bspacing%3D10%3BfontSize%3D20%3B%22%20vertex%3D%221%22%20connectable%3D%220%22%20parent%3D%221%22%3E%3CmxGeometry%20x%3D%22330%22%20y%3D%2260%22%20as%3D%22geometry%22%2F%3E%3C%2FmxCell%3E%3C%2Froot%3E%3C%2FmxGraphModel%3E&lt;/span&gt;" style="edgeLabel;html=1;align=center;verticalAlign=middle;resizable=0;points=[];fontSize=20;fontFamily=Comic Sans MS;fontColor=#000000;" parent="xFGYgxn2yOLl9zh3nEgM-56" vertex="1" connectable="0">
          <mxGeometry x="-0.5363" y="-1" relative="1" as="geometry">
            <mxPoint as="offset" />
          </mxGeometry>
        </mxCell>
        <mxCell id="xFGYgxn2yOLl9zh3nEgM-43" value="&lt;font style=&quot;font-size: 20px&quot;&gt;4&lt;/font&gt;" style="ellipse;whiteSpace=wrap;html=1;strokeWidth=4;fillColor=#F2CC8F;strokeColor=#E07A5F;fontColor=#393C56;rounded=1;" parent="1" vertex="1">
          <mxGeometry x="400" y="40" width="40" height="40" as="geometry" />
        </mxCell>
        <mxCell id="xFGYgxn2yOLl9zh3nEgM-51" style="edgeStyle=orthogonalEdgeStyle;orthogonalLoop=1;jettySize=auto;html=1;exitX=1;exitY=1;exitDx=0;exitDy=0;entryX=0;entryY=0.75;entryDx=0;entryDy=0;entryPerimeter=0;shape=link;labelBackgroundColor=#F4F1DE;strokeColor=#E07A5F;fontColor=#393C56;" parent="1" source="xFGYgxn2yOLl9zh3nEgM-44" target="xFGYgxn2yOLl9zh3nEgM-47" edge="1">
          <mxGeometry relative="1" as="geometry" />
        </mxCell>
        <mxCell id="xFGYgxn2yOLl9zh3nEgM-52" style="edgeStyle=orthogonalEdgeStyle;orthogonalLoop=1;jettySize=auto;html=1;exitX=1;exitY=0;exitDx=0;exitDy=0;entryX=0;entryY=0.675;entryDx=0;entryDy=0;entryPerimeter=0;shape=link;labelBackgroundColor=#F4F1DE;strokeColor=#E07A5F;fontColor=#393C56;" parent="1" source="xFGYgxn2yOLl9zh3nEgM-44" target="xFGYgxn2yOLl9zh3nEgM-45" edge="1">
          <mxGeometry relative="1" as="geometry">
            <Array as="points">
              <mxPoint x="190" y="206" />
              <mxPoint x="190" y="140" />
              <mxPoint x="240" y="140" />
            </Array>
          </mxGeometry>
        </mxCell>
        <mxCell id="xFGYgxn2yOLl9zh3nEgM-53" style="edgeStyle=orthogonalEdgeStyle;orthogonalLoop=1;jettySize=auto;html=1;exitX=1;exitY=0.5;exitDx=0;exitDy=0;entryX=0;entryY=0.5;entryDx=0;entryDy=0;shape=link;labelBackgroundColor=#F4F1DE;strokeColor=#E07A5F;fontColor=#393C56;" parent="1" source="xFGYgxn2yOLl9zh3nEgM-44" target="xFGYgxn2yOLl9zh3nEgM-46" edge="1">
          <mxGeometry relative="1" as="geometry" />
        </mxCell>
        <mxCell id="xFGYgxn2yOLl9zh3nEgM-44" value="&lt;font style=&quot;font-size: 25px&quot;&gt;0&lt;/font&gt;" style="ellipse;whiteSpace=wrap;html=1;strokeWidth=4;fillColor=#F2CC8F;strokeColor=#E07A5F;fontColor=#393C56;rounded=1;" parent="1" vertex="1">
          <mxGeometry x="80" y="200" width="40" height="40" as="geometry" />
        </mxCell>
        <mxCell id="xFGYgxn2yOLl9zh3nEgM-55" style="edgeStyle=orthogonalEdgeStyle;orthogonalLoop=1;jettySize=auto;html=1;exitX=1;exitY=0.5;exitDx=0;exitDy=0;entryX=0;entryY=0.5;entryDx=0;entryDy=0;shape=link;labelBackgroundColor=#F4F1DE;strokeColor=#E07A5F;fontColor=#393C56;" parent="1" source="xFGYgxn2yOLl9zh3nEgM-45" target="xFGYgxn2yOLl9zh3nEgM-43" edge="1">
          <mxGeometry relative="1" as="geometry">
            <Array as="points">
              <mxPoint x="280" y="60" />
            </Array>
          </mxGeometry>
        </mxCell>
        <mxCell id="xFGYgxn2yOLl9zh3nEgM-101" value="&lt;font style=&quot;font-size: 20px;&quot; face=&quot;Verdana&quot;&gt;20&lt;/font&gt;" style="edgeLabel;html=1;align=center;verticalAlign=middle;resizable=0;points=[];fontFamily=Comic Sans MS;fontColor=#000000;labelBorderColor=#FFD966;labelBackgroundColor=#FFF2CC;spacing=10;fontSize=20;" parent="xFGYgxn2yOLl9zh3nEgM-55" vertex="1" connectable="0">
          <mxGeometry x="0.1692" y="1" relative="1" as="geometry">
            <mxPoint x="13" y="1" as="offset" />
          </mxGeometry>
        </mxCell>
        <mxCell id="xFGYgxn2yOLl9zh3nEgM-66" style="edgeStyle=orthogonalEdgeStyle;shape=link;orthogonalLoop=1;jettySize=auto;html=1;exitX=0.5;exitY=1;exitDx=0;exitDy=0;entryX=0;entryY=0;entryDx=0;entryDy=0;labelBackgroundColor=#F4F1DE;strokeColor=#E07A5F;fontColor=#393C56;" parent="1" source="xFGYgxn2yOLl9zh3nEgM-45" target="xFGYgxn2yOLl9zh3nEgM-42" edge="1">
          <mxGeometry relative="1" as="geometry" />
        </mxCell>
        <mxCell id="xFGYgxn2yOLl9zh3nEgM-45" value="&lt;font style=&quot;font-size: 20px&quot;&gt;3&lt;/font&gt;" style="ellipse;whiteSpace=wrap;html=1;strokeWidth=4;fillColor=#F2CC8F;strokeColor=#E07A5F;fontColor=#393C56;rounded=1;" parent="1" vertex="1">
          <mxGeometry x="240" y="120" width="40" height="40" as="geometry" />
        </mxCell>
        <mxCell id="xFGYgxn2yOLl9zh3nEgM-54" style="edgeStyle=orthogonalEdgeStyle;orthogonalLoop=1;jettySize=auto;html=1;exitX=1;exitY=0.5;exitDx=0;exitDy=0;entryX=0;entryY=0.5;entryDx=0;entryDy=0;shape=link;labelBackgroundColor=#F4F1DE;strokeColor=#E07A5F;fontColor=#393C56;" parent="1" source="xFGYgxn2yOLl9zh3nEgM-46" target="xFGYgxn2yOLl9zh3nEgM-42" edge="1">
          <mxGeometry relative="1" as="geometry" />
        </mxCell>
        <mxCell id="xFGYgxn2yOLl9zh3nEgM-65" style="edgeStyle=orthogonalEdgeStyle;shape=link;orthogonalLoop=1;jettySize=auto;html=1;exitX=0.5;exitY=1;exitDx=0;exitDy=0;entryX=0.5;entryY=0;entryDx=0;entryDy=0;labelBackgroundColor=#F4F1DE;strokeColor=#E07A5F;fontColor=#393C56;" parent="1" source="xFGYgxn2yOLl9zh3nEgM-46" target="xFGYgxn2yOLl9zh3nEgM-7" edge="1">
          <mxGeometry relative="1" as="geometry" />
        </mxCell>
        <mxCell id="xFGYgxn2yOLl9zh3nEgM-46" value="&lt;font style=&quot;font-size: 20px&quot;&gt;2&lt;/font&gt;" style="ellipse;whiteSpace=wrap;html=1;strokeWidth=4;fillColor=#F2CC8F;strokeColor=#E07A5F;fontColor=#393C56;rounded=1;" parent="1" vertex="1">
          <mxGeometry x="320" y="200" width="40" height="40" as="geometry" />
        </mxCell>
        <mxCell id="xFGYgxn2yOLl9zh3nEgM-63" style="edgeStyle=orthogonalEdgeStyle;shape=link;orthogonalLoop=1;jettySize=auto;html=1;exitX=1;exitY=1;exitDx=0;exitDy=0;entryX=0;entryY=0.5;entryDx=0;entryDy=0;labelBackgroundColor=#F4F1DE;strokeColor=#E07A5F;fontColor=#393C56;" parent="1" source="xFGYgxn2yOLl9zh3nEgM-47" target="xFGYgxn2yOLl9zh3nEgM-7" edge="1">
          <mxGeometry relative="1" as="geometry" />
        </mxCell>
        <mxCell id="xFGYgxn2yOLl9zh3nEgM-47" value="&lt;font style=&quot;font-size: 20px&quot;&gt;1&lt;/font&gt;" style="ellipse;whiteSpace=wrap;html=1;strokeWidth=4;fillColor=#F2CC8F;strokeColor=#E07A5F;fontColor=#393C56;rounded=1;" parent="1" vertex="1">
          <mxGeometry x="240" y="280" width="40" height="40" as="geometry" />
        </mxCell>
        <mxCell id="xFGYgxn2yOLl9zh3nEgM-57" style="edgeStyle=orthogonalEdgeStyle;orthogonalLoop=1;jettySize=auto;html=1;exitX=1;exitY=0.5;exitDx=0;exitDy=0;entryX=0;entryY=0;entryDx=0;entryDy=0;shape=link;labelBackgroundColor=#F4F1DE;strokeColor=#E07A5F;fontColor=#393C56;" parent="1" source="xFGYgxn2yOLl9zh3nEgM-48" target="xFGYgxn2yOLl9zh3nEgM-49" edge="1">
          <mxGeometry relative="1" as="geometry" />
        </mxCell>
        <mxCell id="xFGYgxn2yOLl9zh3nEgM-48" value="&lt;font style=&quot;font-size: 20px&quot;&gt;8&lt;/font&gt;" style="ellipse;whiteSpace=wrap;html=1;strokeWidth=4;fillColor=#F2CC8F;strokeColor=#E07A5F;fontColor=#393C56;rounded=1;" parent="1" vertex="1">
          <mxGeometry x="640" y="120" width="40" height="40" as="geometry" />
        </mxCell>
        <mxCell id="xFGYgxn2yOLl9zh3nEgM-49" value="&lt;font style=&quot;font-size: 20px&quot;&gt;9&lt;/font&gt;" style="ellipse;whiteSpace=wrap;html=1;strokeWidth=4;fillColor=#F2CC8F;strokeColor=#E07A5F;fontColor=#393C56;rounded=1;" parent="1" vertex="1">
          <mxGeometry x="720" y="200" width="40" height="40" as="geometry" />
        </mxCell>
        <mxCell id="xFGYgxn2yOLl9zh3nEgM-58" style="edgeStyle=orthogonalEdgeStyle;orthogonalLoop=1;jettySize=auto;html=1;exitX=1;exitY=0.5;exitDx=0;exitDy=0;entryX=0;entryY=1;entryDx=0;entryDy=0;shape=link;labelBackgroundColor=#F4F1DE;strokeColor=#E07A5F;fontColor=#393C56;" parent="1" source="xFGYgxn2yOLl9zh3nEgM-50" target="xFGYgxn2yOLl9zh3nEgM-49" edge="1">
          <mxGeometry relative="1" as="geometry" />
        </mxCell>
        <mxCell id="xFGYgxn2yOLl9zh3nEgM-50" value="&lt;font style=&quot;font-size: 20px&quot;&gt;7&lt;/font&gt;" style="ellipse;whiteSpace=wrap;html=1;strokeWidth=4;fillColor=#F2CC8F;strokeColor=#E07A5F;fontColor=#393C56;rounded=1;" parent="1" vertex="1">
          <mxGeometry x="640" y="280" width="40" height="40" as="geometry" />
        </mxCell>
        <mxCell id="xFGYgxn2yOLl9zh3nEgM-68" style="edgeStyle=orthogonalEdgeStyle;orthogonalLoop=1;jettySize=auto;html=1;exitX=1;exitY=0.5;exitDx=0;exitDy=0;entryX=0;entryY=1;entryDx=0;entryDy=0;shape=link;dashed=1;dashPattern=1 2;labelBackgroundColor=#F4F1DE;strokeColor=#E07A5F;fontColor=#393C56;" parent="1" edge="1">
          <mxGeometry relative="1" as="geometry">
            <mxPoint x="680" y="300" as="sourcePoint" />
            <mxPoint x="725.8578643762689" y="234.14213562373106" as="targetPoint" />
          </mxGeometry>
        </mxCell>
        <mxCell id="xFGYgxn2yOLl9zh3nEgM-69" style="edgeStyle=orthogonalEdgeStyle;shape=link;orthogonalLoop=1;jettySize=auto;html=1;exitX=1;exitY=0.5;exitDx=0;exitDy=0;entryX=0.5;entryY=1;entryDx=0;entryDy=0;labelBackgroundColor=#F4F1DE;strokeColor=#E07A5F;fontColor=#393C56;" parent="1" edge="1">
          <mxGeometry relative="1" as="geometry">
            <mxPoint x="440" y="380" as="sourcePoint" />
            <mxPoint x="660" y="320" as="targetPoint" />
          </mxGeometry>
        </mxCell>
        <mxCell id="xFGYgxn2yOLl9zh3nEgM-103" value="&lt;font style=&quot;font-size: 20px&quot; face=&quot;Verdana&quot;&gt;21&lt;/font&gt;" style="edgeLabel;html=1;align=center;verticalAlign=middle;resizable=0;points=[];fontFamily=Comic Sans MS;fontColor=#000000;labelBorderColor=#FFD966;labelBackgroundColor=#FFF2CC;spacing=10;fontSize=20;" parent="1" vertex="1" connectable="0">
          <mxGeometry x="540" y="90" as="geometry" />
        </mxCell>
        <mxCell id="xFGYgxn2yOLl9zh3nEgM-104" value="&lt;font style=&quot;font-size: 20px&quot; face=&quot;Verdana&quot;&gt;12&lt;/font&gt;" style="edgeLabel;html=1;align=center;verticalAlign=middle;resizable=0;points=[];fontFamily=Comic Sans MS;fontColor=#000000;labelBorderColor=#FFD966;labelBackgroundColor=#FFF2CC;spacing=10;fontSize=20;" parent="1" vertex="1" connectable="0">
          <mxGeometry x="180" y="160" as="geometry">
            <mxPoint x="10" y="20" as="offset" />
          </mxGeometry>
        </mxCell>
        <mxCell id="xFGYgxn2yOLl9zh3nEgM-105" value="&lt;font style=&quot;font-size: 20px&quot; face=&quot;Verdana&quot;&gt;16&lt;br&gt;&lt;/font&gt;" style="edgeLabel;html=1;align=center;verticalAlign=middle;resizable=0;points=[];fontFamily=Comic Sans MS;fontColor=#000000;labelBorderColor=#FFD966;labelBackgroundColor=#FFF2CC;spacing=10;fontSize=20;" parent="1" vertex="1" connectable="0">
          <mxGeometry x="350" y="350" as="geometry">
            <mxPoint x="-14" y="-2" as="offset" />
          </mxGeometry>
        </mxCell>
        <mxCell id="xFGYgxn2yOLl9zh3nEgM-106" value="&lt;font style=&quot;font-size: 20px&quot; face=&quot;Verdana&quot;&gt;10&lt;/font&gt;" style="edgeLabel;html=1;align=center;verticalAlign=middle;resizable=0;points=[];fontFamily=Comic Sans MS;fontColor=#000000;labelBorderColor=#FFD966;labelBackgroundColor=#FFF2CC;spacing=10;fontSize=20;" parent="1" vertex="1" connectable="0">
          <mxGeometry x="180" y="290" as="geometry">
            <mxPoint x="2" y="-24" as="offset" />
          </mxGeometry>
        </mxCell>
        <mxCell id="xFGYgxn2yOLl9zh3nEgM-107" value="&lt;font style=&quot;font-size: 20px&quot; face=&quot;Verdana&quot;&gt;11&lt;/font&gt;" style="edgeLabel;html=1;align=center;verticalAlign=middle;resizable=0;points=[];fontFamily=Comic Sans MS;fontColor=#000000;labelBorderColor=#FFD966;labelBackgroundColor=#FFF2CC;spacing=10;fontSize=20;" parent="1" vertex="1" connectable="0">
          <mxGeometry x="220" y="210" as="geometry">
            <mxPoint x="18" y="9" as="offset" />
          </mxGeometry>
        </mxCell>
        <mxCell id="xFGYgxn2yOLl9zh3nEgM-108" value="&lt;span style=&quot;font-family: &amp;#34;verdana&amp;#34;&quot;&gt;14&lt;/span&gt;&lt;font style=&quot;font-size: 20px&quot; face=&quot;Verdana&quot;&gt;&lt;br&gt;&lt;/font&gt;" style="edgeLabel;html=1;align=center;verticalAlign=middle;resizable=0;points=[];fontFamily=Comic Sans MS;fontColor=#000000;labelBorderColor=#FFD966;labelBackgroundColor=#FFF2CC;spacing=10;fontSize=20;" parent="1" vertex="1" connectable="0">
          <mxGeometry x="450" y="220" as="geometry">
            <mxPoint x="-14" y="-2" as="offset" />
          </mxGeometry>
        </mxCell>
        <mxCell id="xFGYgxn2yOLl9zh3nEgM-109" value="&lt;font style=&quot;font-size: 20px&quot; face=&quot;Verdana&quot;&gt;18&lt;br&gt;&lt;/font&gt;" style="edgeLabel;html=1;align=center;verticalAlign=middle;resizable=0;points=[];fontFamily=Comic Sans MS;fontColor=#000000;labelBorderColor=#FFD966;labelBackgroundColor=#FFF2CC;spacing=10;fontSize=20;" parent="1" vertex="1" connectable="0">
          <mxGeometry x="610" y="270" as="geometry">
            <mxPoint x="-14" y="-2" as="offset" />
          </mxGeometry>
        </mxCell>
        <mxCell id="xFGYgxn2yOLl9zh3nEgM-110" value="&lt;font style=&quot;font-size: 20px&quot; face=&quot;Verdana&quot;&gt;17&lt;br&gt;&lt;/font&gt;" style="edgeLabel;html=1;align=center;verticalAlign=middle;resizable=0;points=[];fontFamily=Comic Sans MS;fontColor=#000000;labelBorderColor=#FFD966;labelBackgroundColor=#FFF2CC;spacing=10;fontSize=20;" parent="1" vertex="1" connectable="0">
          <mxGeometry x="580" y="380" as="geometry">
            <mxPoint x="-14" y="-2" as="offset" />
          </mxGeometry>
        </mxCell>
        <mxCell id="xFGYgxn2yOLl9zh3nEgM-111" value="&lt;font style=&quot;font-size: 20px&quot; face=&quot;Verdana&quot;&gt;15&lt;br&gt;&lt;/font&gt;" style="edgeLabel;html=1;align=center;verticalAlign=middle;resizable=0;points=[];fontFamily=Comic Sans MS;fontColor=#000000;labelBorderColor=#FFD966;labelBackgroundColor=#FFF2CC;spacing=10;fontSize=20;" parent="1" vertex="1" connectable="0">
          <mxGeometry x="400" y="300" as="geometry">
            <mxPoint x="-14" y="-2" as="offset" />
          </mxGeometry>
        </mxCell>
        <mxCell id="xFGYgxn2yOLl9zh3nEgM-112" value="&lt;span style=&quot;font-family: &amp;#34;verdana&amp;#34;&quot;&gt;22&lt;/span&gt;&lt;font style=&quot;font-size: 20px&quot; face=&quot;Verdana&quot;&gt;&lt;br&gt;&lt;/font&gt;" style="edgeLabel;html=1;align=center;verticalAlign=middle;resizable=0;points=[];fontFamily=Comic Sans MS;fontColor=#000000;labelBorderColor=#FFD966;labelBackgroundColor=#FFF2CC;spacing=10;fontSize=20;" parent="1" vertex="1" connectable="0">
          <mxGeometry x="740" y="170" as="geometry">
            <mxPoint x="-14" y="-2" as="offset" />
          </mxGeometry>
        </mxCell>
        <mxCell id="xFGYgxn2yOLl9zh3nEgM-113" value="&lt;span style=&quot;font-family: &amp;#34;verdana&amp;#34;&quot;&gt;23&lt;/span&gt;&lt;font style=&quot;font-size: 20px&quot; face=&quot;Verdana&quot;&gt;&lt;br&gt;&lt;/font&gt;" style="edgeLabel;html=1;align=center;verticalAlign=middle;resizable=0;points=[];fontFamily=Comic Sans MS;fontColor=#000000;labelBorderColor=#FFD966;labelBackgroundColor=#FFF2CC;spacing=10;fontSize=20;" parent="1" vertex="1" connectable="0">
          <mxGeometry x="740" y="270" as="geometry">
            <mxPoint x="-14" y="-2" as="offset" />
          </mxGeometry>
        </mxCell>
        <mxCell id="xFGYgxn2yOLl9zh3nEgM-114" value="&lt;span style=&quot;font-family: &amp;#34;verdana&amp;#34;&quot;&gt;19&lt;/span&gt;&lt;font style=&quot;font-size: 20px&quot; face=&quot;Verdana&quot;&gt;&lt;br&gt;&lt;/font&gt;" style="edgeLabel;html=1;align=center;verticalAlign=middle;resizable=0;points=[];fontFamily=Comic Sans MS;fontColor=#000000;labelBorderColor=#FFD966;labelBackgroundColor=#FFF2CC;spacing=10;fontSize=20;" parent="1" vertex="1" connectable="0">
          <mxGeometry x="500" y="150" as="geometry">
            <mxPoint x="-14" y="-2" as="offset" />
          </mxGeometry>
        </mxCell>
        <mxCell id="xFGYgxn2yOLl9zh3nEgM-115" value="&lt;span style=&quot;font-family: &amp;#34;verdana&amp;#34;&quot;&gt;13&lt;/span&gt;&lt;font style=&quot;font-size: 20px&quot; face=&quot;Verdana&quot;&gt;&lt;br&gt;&lt;/font&gt;" style="edgeLabel;html=1;align=center;verticalAlign=middle;resizable=0;points=[];fontFamily=Comic Sans MS;fontColor=#000000;labelBorderColor=#FFD966;labelBackgroundColor=#FFF2CC;spacing=10;fontSize=20;" parent="1" vertex="1" connectable="0">
          <mxGeometry x="400" y="180" as="geometry">
            <mxPoint x="-14" y="-2" as="offset" />
          </mxGeometry>
        </mxCell>
      </root>
    </mxGraphModel>
  </diagram>
</mxfile>
